<?xml version="1.0" encoding="utf-8"?>
<!-- Generator: Adobe Illustrator 21.1.0, SVG Export Plug-In . SVG Version: 6.00 Build 0)  -->
<svg version="1.1" id="Layer_1" focusable="false" xmlns="http://www.w3.org/2000/svg" xmlns:xlink="http://www.w3.org/1999/xlink"
	 x="0px" y="0px" viewBox="0 0 512 512" style="enable-background:new 0 0 512 512;" xml:space="preserve">
<style type="text/css">
	.st0{fill:#43ABC9;}
</style>
<path class="st0" d="M256,8C119,8,8,119,8,256s111,248,248,248s248-111,248-248S393,8,256,8z M240,336c0,8.8-7.2,16-16,16h-48
	c-8.8,0-16-7.2-16-16V176c0-8.8,7.2-16,16-16h48c8.8,0,16,7.2,16,16V336z M352,336c0,8.8-7.2,16-16,16h-48c-8.8,0-16-7.2-16-16V176
	c0-8.8,7.2-16,16-16h48c8.8,0,16,7.2,16,16V336z"/>
</svg>
